<svg xmlns="http://www.w3.org/2000/svg" version="1.1" xmlns:xlink="http://www.w3.org/1999/xlink" xmlns:svgjs="http://svgjs.dev/svgjs" viewBox="0 0 800 800"><defs><linearGradient x1="50%" y1="0%" x2="50%" y2="100%" id="ffflurry-grad" gradientTransform="rotate(270)"><stop stop-color="rgb(255, 255, 255)" stop-opacity="1" offset="0%"></stop><stop stop-color="hsl(212, 72%, 59%)" stop-opacity="1" offset="45%"></stop><stop stop-color="hsl(167, 52%, 78%)" stop-opacity="1" offset="100%"></stop></linearGradient></defs><rect width="100%" height="100%" fill="#ffffff"></rect><g fill="url(#ffflurry-grad)"><rect width="198" height="3" x="358" y="690.5" rx="1.5" transform="rotate(45, 457, 692)" opacity="0.18"></rect><rect width="425" height="3" x="-45.5" y="474.5" rx="1.5" transform="rotate(45, 167, 476)" opacity="0.97"></rect><rect width="505" height="3" x="-129.5" y="224.5" rx="1.5" transform="rotate(45, 123, 226)" opacity="0.20"></rect><rect width="701" height="3" x="-64.5" y="59.5" rx="1.5" transform="rotate(45, 286, 61)" opacity="0.78"></rect><rect width="263" height="3" x="117.5" y="396.5" rx="1.5" transform="rotate(45, 249, 398)" opacity="0.37"></rect><rect width="376" height="3" x="88" y="310.5" rx="1.5" transform="rotate(45, 276, 312)" opacity="0.61"></rect><rect width="570" height="3" x="-235" y="38.5" rx="1.5" transform="rotate(45, 50, 40)" opacity="0.75"></rect><rect width="295" height="3" x="401.5" y="273.5" rx="1.5" transform="rotate(45, 549, 275)" opacity="0.49"></rect><rect width="254" height="3" x="101" y="241.5" rx="1.5" transform="rotate(45, 228, 243)" opacity="0.20"></rect><rect width="231" height="3" x="392.5" y="94.5" rx="1.5" transform="rotate(45, 508, 96)" opacity="0.66"></rect><rect width="653" height="3" x="-125.5" y="159.5" rx="1.5" transform="rotate(45, 201, 161)" opacity="0.64"></rect><rect width="222" height="3" x="651" y="660.5" rx="1.5" transform="rotate(45, 762, 662)" opacity="0.36"></rect><rect width="634" height="3" x="-96" y="586.5" rx="1.5" transform="rotate(45, 221, 588)" opacity="0.56"></rect><rect width="317" height="3" x="-19.5" y="588.5" rx="1.5" transform="rotate(45, 139, 590)" opacity="0.26"></rect><rect width="64" height="3" x="351" y="567.5" rx="1.5" transform="rotate(45, 383, 569)" opacity="0.79"></rect><rect width="283" height="3" x="295.5" y="631.5" rx="1.5" transform="rotate(45, 437, 633)" opacity="0.75"></rect><rect width="432" height="3" x="123" y="686.5" rx="1.5" transform="rotate(45, 339, 688)" opacity="0.81"></rect><rect width="476" height="3" x="118" y="133.5" rx="1.5" transform="rotate(45, 356, 135)" opacity="0.14"></rect><rect width="696" height="3" x="269" y="52.5" rx="1.5" transform="rotate(45, 617, 54)" opacity="0.08"></rect><rect width="377" height="3" x="445.5" y="472.5" rx="1.5" transform="rotate(45, 634, 474)" opacity="0.59"></rect><rect width="524" height="3" x="-209" y="400.5" rx="1.5" transform="rotate(45, 53, 402)" opacity="0.18"></rect><rect width="391" height="3" x="466.5" y="413.5" rx="1.5" transform="rotate(45, 662, 415)" opacity="0.20"></rect><rect width="68" height="3" x="730" y="527.5" rx="1.5" transform="rotate(45, 764, 529)" opacity="0.41"></rect><rect width="154" height="3" x="373" y="560.5" rx="1.5" transform="rotate(45, 450, 562)" opacity="0.34"></rect><rect width="271" height="3" x="480.5" y="638.5" rx="1.5" transform="rotate(45, 616, 640)" opacity="0.90"></rect><rect width="243" height="3" x="562.5" y="642.5" rx="1.5" transform="rotate(45, 684, 644)" opacity="0.11"></rect><rect width="577" height="3" x="-235.5" y="698.5" rx="1.5" transform="rotate(45, 53, 700)" opacity="0.62"></rect><rect width="296" height="3" x="625" y="257.5" rx="1.5" transform="rotate(45, 773, 259)" opacity="0.17"></rect><rect width="240" height="3" x="19" y="750.5" rx="1.5" transform="rotate(45, 139, 752)" opacity="0.21"></rect><rect width="395" height="3" x="-146.5" y="300.5" rx="1.5" transform="rotate(45, 51, 302)" opacity="0.77"></rect><rect width="617" height="3" x="436.5" y="56.5" rx="1.5" transform="rotate(45, 745, 58)" opacity="0.90"></rect><rect width="464" height="3" x="-37" y="34.5" rx="1.5" transform="rotate(45, 195, 36)" opacity="0.46"></rect><rect width="165" height="3" x="304.5" y="748.5" rx="1.5" transform="rotate(45, 387, 750)" opacity="0.88"></rect><rect width="264" height="3" x="469" y="735.5" rx="1.5" transform="rotate(45, 601, 737)" opacity="0.25"></rect><rect width="405" height="3" x="248.5" y="284.5" rx="1.5" transform="rotate(45, 451, 286)" opacity="0.53"></rect><rect width="308" height="3" x="429" y="568.5" rx="1.5" transform="rotate(45, 583, 570)" opacity="0.27"></rect><rect width="304" height="3" x="-104" y="570.5" rx="1.5" transform="rotate(45, 48, 572)" opacity="0.71"></rect><rect width="319" height="3" x="-15.5" y="81.5" rx="1.5" transform="rotate(45, 144, 83)" opacity="0.95"></rect><rect width="301" height="3" x="615.5" y="364.5" rx="1.5" transform="rotate(45, 766, 366)" opacity="0.74"></rect><rect width="527" height="3" x="315.5" y="371.5" rx="1.5" transform="rotate(45, 579, 373)" opacity="0.31"></rect><rect width="239" height="3" x="609.5" y="434.5" rx="1.5" transform="rotate(45, 729, 436)" opacity="0.46"></rect><rect width="459" height="3" x="88.5" y="253.5" rx="1.5" transform="rotate(45, 318, 255)" opacity="0.91"></rect><rect width="68" height="3" x="683" y="750.5" rx="1.5" transform="rotate(45, 717, 752)" opacity="0.62"></rect><rect width="109" height="3" x="17.5" y="119.5" rx="1.5" transform="rotate(45, 72, 121)" opacity="0.14"></rect><rect width="259" height="3" x="175.5" y="594.5" rx="1.5" transform="rotate(45, 305, 596)" opacity="0.88"></rect><rect width="82" height="3" x="391" y="129.5" rx="1.5" transform="rotate(45, 432, 131)" opacity="0.79"></rect><rect width="456" height="3" x="306" y="653.5" rx="1.5" transform="rotate(45, 534, 655)" opacity="0.90"></rect><rect width="383" height="3" x="263.5" y="767.5" rx="1.5" transform="rotate(45, 455, 769)" opacity="0.77"></rect><rect width="179" height="3" x="391.5" y="403.5" rx="1.5" transform="rotate(45, 481, 405)" opacity="0.51"></rect><rect width="218" height="3" x="255" y="628.5" rx="1.5" transform="rotate(45, 364, 630)" opacity="0.93"></rect><rect width="228" height="3" x="237" y="340.5" rx="1.5" transform="rotate(45, 351, 342)" opacity="0.23"></rect><rect width="291" height="3" x="627.5" y="576.5" rx="1.5" transform="rotate(45, 773, 578)" opacity="0.22"></rect><rect width="350" height="3" x="120" y="459.5" rx="1.5" transform="rotate(45, 295, 461)" opacity="0.91"></rect><rect width="443" height="3" x="340.5" y="479.5" rx="1.5" transform="rotate(45, 562, 481)" opacity="0.51"></rect><rect width="455" height="3" x="180.5" y="33.5" rx="1.5" transform="rotate(45, 408, 35)" opacity="0.78"></rect><rect width="414" height="3" x="372" y="168.5" rx="1.5" transform="rotate(45, 579, 170)" opacity="0.50"></rect><rect width="216" height="3" x="30" y="370.5" rx="1.5" transform="rotate(45, 138, 372)" opacity="0.90"></rect><rect width="220" height="3" x="120" y="684.5" rx="1.5" transform="rotate(45, 230, 686)" opacity="0.57"></rect><rect width="101" height="3" x="475.5" y="751.5" rx="1.5" transform="rotate(45, 526, 753)" opacity="0.92"></rect><rect width="400" height="3" x="-7" y="315.5" rx="1.5" transform="rotate(45, 193, 317)" opacity="1.00"></rect><rect width="665" height="3" x="389.5" y="157.5" rx="1.5" transform="rotate(45, 722, 159)" opacity="0.42"></rect><rect width="108" height="3" x="663" y="257.5" rx="1.5" transform="rotate(45, 717, 259)" opacity="0.58"></rect><rect width="574" height="3" x="95" y="416.5" rx="1.5" transform="rotate(45, 382, 418)" opacity="0.25"></rect><rect width="223" height="3" x="176.5" y="169.5" rx="1.5" transform="rotate(45, 288, 171)" opacity="0.51"></rect><rect width="171" height="3" x="595.5" y="338.5" rx="1.5" transform="rotate(45, 681, 340)" opacity="0.88"></rect><rect width="31" height="3" x="261.5" y="521.5" rx="1.5" transform="rotate(45, 277, 523)" opacity="0.36"></rect><rect width="489" height="3" x="265.5" y="583.5" rx="1.5" transform="rotate(45, 510, 585)" opacity="0.75"></rect><rect width="394" height="3" x="-164" y="187.5" rx="1.5" transform="rotate(45, 33, 189)" opacity="0.40"></rect><rect width="551" height="3" x="114.5" y="219.5" rx="1.5" transform="rotate(45, 390, 221)" opacity="0.27"></rect><rect width="50" height="3" x="620" y="246.5" rx="1.5" transform="rotate(45, 645, 248)" opacity="0.24"></rect><rect width="205" height="3" x="664.5" y="474.5" rx="1.5" transform="rotate(45, 767, 476)" opacity="0.60"></rect><rect width="509" height="3" x="-203.5" y="478.5" rx="1.5" transform="rotate(45, 51, 480)" opacity="0.92"></rect><rect width="372" height="3" x="213" y="497.5" rx="1.5" transform="rotate(45, 399, 499)" opacity="0.50"></rect><rect width="96" height="3" x="662" y="541.5" rx="1.5" transform="rotate(45, 710, 543)" opacity="0.27"></rect><rect width="225" height="3" x="381.5" y="503.5" rx="1.5" transform="rotate(45, 494, 505)" opacity="0.22"></rect><rect width="79" height="3" x="245.5" y="762.5" rx="1.5" transform="rotate(45, 285, 764)" opacity="0.63"></rect><rect width="225" height="3" x="539.5" y="546.5" rx="1.5" transform="rotate(45, 652, 548)" opacity="0.73"></rect></g></svg>