<?xml version="1.0" encoding="utf-8"?>
<!-- Generator: $$$/GeneralStr/196=Adobe Illustrator 27.6.0, SVG Export Plug-In . SVG Version: 6.00 Build 0)  -->
<svg version="1.1" id="Capa_1" xmlns="http://www.w3.org/2000/svg" xmlns:xlink="http://www.w3.org/1999/xlink" x="0px" y="0px"
	 viewBox="0 0 366.3 218.9" style="enable-background:new 0 0 366.3 218.9;" xml:space="preserve">
<style type="text/css">
	.st0{fill:#1B2C4F;}
</style>
<g>
	<path class="st0" d="M148.2,82v45c0,8.2-6.6,14.8-14.8,14.8h0c-8.2,0-14.8-6.6-14.8-14.8V71.8H98.8v54.7
		c0,16.5,13.3,29.8,29.8,29.8h9.7c16.5,0,29.8-13.3,29.8-29.8V71.8h-9.8C152.7,71.8,148.2,76.4,148.2,82z"/>
	<path class="st0" d="M212.3,74.3v-2.5h-16.3V58.5c0-5-4-9-9-9h-9.9v90.9c0,8.8,7.1,15.9,15.9,15.9h19.3v-17.1H205
		c-5,0-9.1-4.1-9.1-9.1V86.4h4.3C206.9,86.4,212.3,81,212.3,74.3z"/>
	<path class="st0" d="M255,74.3v-2.5h-16.3V58.5c0-5-4-9-9-9h-9.9v90.9c0,8.8,7.1,15.9,15.9,15.9H255v-17.1h-7.3
		c-5,0-9.1-4.1-9.1-9.1V86.4h4.3C249.6,86.4,255,81,255,74.3z"/>
	<path class="st0" d="M295.6,70.4L295.6,70.4c-20.3,0-36.8,16.5-36.8,36.8v13.2c0,20.3,16.5,36.8,36.8,36.8h0
		c20.3,0,36.8-16.5,36.8-36.8v-13.2C332.4,86.9,315.9,70.4,295.6,70.4z M312.1,123.9c0,9.1-7.4,16.5-16.5,16.5s-16.5-7.4-16.5-16.5
		v-19.7c0-9.1,7.4-16.5,16.5-16.5s16.5,7.4,16.5,16.5V123.9z"/>
	<path class="st0" d="M81.2,126.3V50.9H64v75.4c-4,1.2-7,4.9-7,9.3v50.4c0,3.6,2.9,6.6,6.6,6.6H64h17.2h0.4c3.6,0,6.6-2.9,6.6-6.6
		v-50.4C88.2,131.2,85.3,127.5,81.2,126.3z"/>
	<path class="st0" d="M133.4,19.4h-9c-2.4,0-4.3,1.9-4.3,4.3v2.2H65.5c-18,0-32.6,14.6-32.6,32.6v2.1c0,2.6,2.1,4.7,4.7,4.7
		c1.4,0,2.7-0.7,3.3-2c5.3-10.7,16.3-18,29.1-18h50.2v1.4c0,2.4,1.9,4.3,4.3,4.3h9c2.4,0,4.3-1.9,4.3-4.3v-23
		C137.7,21.3,135.8,19.4,133.4,19.4z"/>
</g>
</svg>
