<svg xmlns="http://www.w3.org/2000/svg" version="1.1" xmlns:xlink="http://www.w3.org/1999/xlink" xmlns:svgjs="http://svgjs.dev/svgjs" viewBox="0 0 1422 800"><defs><linearGradient x1="50%" y1="0%" x2="50%" y2="100%" id="ccchaos-grad"><stop stop-color="hsl(206, 75%, 49%)" stop-opacity="1" offset="0%"></stop><stop stop-color="hsl(331, 90%, 56%)" stop-opacity="1" offset="100%"></stop></linearGradient></defs><g stroke-width="2" stroke="url(#ccchaos-grad)" fill="none" stroke-linecap="round"><path d="M696.23 127.4C705.75 128.17 715.35 128.69 725.01 128.95 734.7 128.5 744.48 127.94 754.34 127.36 764.26 126.39 774.3 125.66 784.45 125.32 794.69 125 805.08 125.33 815.6 126.39 826.23 127.83 837 130.16 847.86 133.41 858.8 137.2 869.8 141.92 880.77 147.52 891.71 153.64 902.51 160.55 913.04 168.13 923.35 176.08 933.2 184.57 942.44 193.49 951.17 202.58 959.06 211.95 965.96 221.53 972.08 231.12 977.03 240.81 980.67 250.56 983.43 260.21 984.85 269.88 984.93 279.55 984.29 289.08 982.49 298.61 979.68 308.16 976.64 317.58 973.01 327.05 969.05 336.57 965.59 346 962.33 355.53 959.56 365.17 958 374.76 957.35 384.51 957.75 394.41 959.72 404.3 962.83 414.36 966.99 424.6 972.47 434.83 978.46 445 984.63 455.07 991.24 465.12 997.37 475.04 1002.72 484.77 1007.57 494.45 1011.11 503.88 1013.15 512.99 1014.11 521.97 1013.37 530.55 1010.94 538.63 1007.29 546.49 1002.07 553.76 995.43 560.36 987.85 566.66 979.15 572.22 969.58 576.99 959.52 581.44 948.93 585.1 938.01 587.99 927.04 590.68 916.02 592.74 905.07 594.24 894.36 595.86 883.87 597.21 873.65 598.47 863.79 600.29 854.21 602.38 844.9 604.93 835.95 608.51 827.2 612.86 818.62 618.08 810.31 624.56 802.06 631.98 793.84 640.27 785.79 649.56 777.66 659.39 769.43 669.48 761.29 679.78 752.97 689.66 744.46 698.7 735.97 706.86 727.26 713.45 718.33 718.07 709.39 720.96 700.22 721.48 690.82 719.55 681.42 715.77 672.04 709.92 662.7 702.38 653.39 693.92 644.15 684.57 635.03 674.82 625.96 665.35 617.04 656.22 608.32 647.75 599.68 640.45 591.27 634.18 583.16 628.98 575.13 625.22 567.42 622.46 560.07 620.54 552.82 619.74 545.94 619.41 539.46 619.29 530.07 619.8 513.33 618.87 505.92 616.48 501.06 614.2 496.51 610.94 492.26 606.69 487.87 601.93 483.71 596.21 479.77 589.63 475.6 582.59 471.59 574.8 467.73 566.39 463.6 557.64 459.6 548.41 455.75 538.81 451.63 529.02 447.69 518.97 443.95 508.77 440.04 498.48 436.39 488.11 433.09 477.72 429.74 467.32 426.81 456.94 424.4 446.63 422.09 436.32 420.38 426.1 419.35 415.99 418.57 405.88 418.54 396.11 419.27 386.68 420.29 377.23 422.06 368.09 424.54 359.25 427.28 350.35 430.68 341.71 434.68 333.3 438.84 324.79 443.52 316.46 448.64 308.29 453.8 299.95 459.31 291.71 465.11 283.53 470.81 275.12 476.74 266.72 482.84 258.32 488.73 249.66 494.77 240.95 500.91 232.22 506.81 223.27 512.82 214.3 518.94 205.38 524.82 196.35 530.84 187.45 537 178.79 542.97 170.21 549.14 162.03 555.5 154.35 561.73 147.01 568.21 140.36 574.95 134.52 581.6 129.23 588.54 124.86 595.78 121.5 602.97 118.75 610.47 116.99 618.27 116.22 626.05 115.9 634.13 116.4 642.52 117.61 650.89 118.91 659.56 120.63 668.52 122.65 677.46 124.27 686.7 125.89 696.23 127.4" stroke-dasharray="1 6" transform="rotate(0, 711, 400)" opacity="0.83"></path><path d="M700.56 138.79C709.82 139.57 719.18 140.11 728.63 140.41 738.1 140.03 747.68 139.53 757.36 139.01 767.09 138.08 776.95 137.36 786.92 136.96 796.96 136.54 807.13 136.69 817.4 137.5 827.74 138.62 838.17 140.55 848.64 143.33 859.12 146.6 869.59 150.75 879.96 155.74 890.22 161.23 900.27 167.5 909.97 174.46 919.38 181.81 928.28 189.72 936.52 198.11 944.24 206.72 951.12 215.67 957 224.88 962.18 234.15 966.23 243.59 969.07 253.13 971.15 262.63 972.02 272.19 971.71 281.77 970.81 291.25 968.93 300.76 966.19 310.26 963.34 319.68 960.03 329.12 956.48 338.58 953.46 347.97 950.68 357.43 948.36 366.94 947.19 376.42 946.84 385.99 947.43 395.64 949.46 405.29 952.5 415.05 956.46 424.89 961.63 434.74 967.24 444.44 973.01 453.97 979.21 463.48 985 472.79 990.09 481.84 994.79 490.83 998.33 499.52 1000.54 507.83 1001.82 516.01 1001.54 523.75 999.73 530.97 996.82 538 992.42 544.43 986.67 550.22 980.02 555.77 972.25 560.63 963.58 564.78 954.37 568.71 944.55 571.97 934.31 574.59 923.92 577.15 913.36 579.22 902.76 580.9 892.3 582.82 881.95 584.6 871.78 586.42 861.89 588.87 852.21 591.66 842.76 594.95 833.62 599.23 824.67 604.24 815.89 610.05 807.36 616.97 798.93 624.69 790.56 633.12 782.36 642.37 774.15 652 765.89 661.72 757.73 671.53 749.46 680.84 741.08 689.27 732.73 696.82 724.22 702.86 715.55 707.05 706.89 709.64 698.05 710.04 689.06 708.16 680.06 704.61 671.13 699.12 662.28 692.04 653.45 684.08 644.73 675.25 636.16 665.94 627.62 656.82 619.26 647.9 611.13 639.48 603.05 632.07 595.21 625.51 587.67 619.89 580.2 615.57 573.03 612.16 566.22 609.57 559.48 608.06 553.08 607.06 547.07 606.38 538.3 606.22 522.58 604.99 515.56 602.99 508.73 599.85 496.12 588.7 490.2 580.69 486.08 574.68 482.1 567.93 478.25 560.53 474.14 552.82 470.15 544.58 466.3 535.9 462.19 527.04 458.25 517.84 454.52 508.41 450.62 498.88 446.98 489.19 443.68 479.41 440.34 469.6 437.42 459.74 434.99 449.89 432.68 440.04 430.95 430.2 429.88 420.42 429.06 410.64 428.98 401.13 429.63 391.9 430.58 382.65 432.26 373.65 434.63 364.89 437.27 356.08 440.56 347.46 444.43 339.04 448.48 330.51 453.04 322.12 458.05 313.83 463.11 305.4 468.53 297.03 474.25 288.69 479.89 280.16 485.76 271.63 491.81 263.09 497.7 254.34 503.72 245.58 509.85 236.81 515.76 227.89 521.78 219.01 527.9 210.22 533.79 201.4 539.8 192.78 545.94 184.45 551.89 176.27 557.99 168.53 564.28 161.35 570.41 154.53 576.77 148.42 583.35 143.11 589.83 138.34 596.57 134.47 603.58 131.56 610.53 129.21 617.76 127.8 625.29 127.29 632.77 127.18 640.56 127.82 648.64 129.11 656.7 130.44 665.06 132.16 673.71 134.13 682.36 135.73 691.31 137.31 700.56 138.79" stroke-dasharray="2 4" transform="rotate(4.04, 711, 400)" opacity="0.93"></path><path d="M705.47 150.18C714.46 150.96 723.57 151.52 732.78 151.86 742.01 151.56 751.36 151.13 760.81 150.67 770.3 149.79 779.91 149.09 789.62 148.66 799.37 148.17 809.22 148.18 819.14 148.77 829.08 149.6 839.07 151.17 849.03 153.52 858.96 156.29 868.8 159.89 878.46 164.29 887.98 169.16 897.21 174.78 906.02 181.09 914.52 187.8 922.46 195.09 929.71 202.88 936.46 210.94 942.37 219.38 947.31 228.12 951.62 236.99 954.88 246.06 957.03 255.28 958.53 264.53 958.96 273.86 958.35 283.23 957.29 292.57 955.4 301.94 952.79 311.31 950.17 320.63 947.2 329.96 944.07 339.3 941.49 348.59 939.15 357.9 937.27 367.23 936.45 376.54 936.37 385.89 937.14 395.27 939.21 404.64 942.16 414.06 945.93 423.49 950.79 432.92 956.03 442.15 961.42 451.13 967.22 460.1 972.66 468.8 977.49 477.19 982.03 485.53 985.53 493.51 987.86 501.07 989.39 508.52 989.52 515.51 988.25 521.97 986 528.28 982.37 534.01 977.46 539.14 971.7 544.09 964.85 548.43 957.07 552.15 948.74 555.75 939.74 558.79 930.24 561.33 920.52 563.91 910.52 566.14 900.4 568.13 890.31 570.44 880.23 572.74 870.25 575.17 860.46 578.25 850.82 581.72 841.37 585.71 832.15 590.61 823.1 596.19 814.22 602.48 805.55 609.74 796.99 617.65 788.53 626.13 780.23 635.24 771.95 644.59 763.69 653.91 755.52 663.2 747.3 671.93 739.03 679.75 730.8 686.71 722.47 692.22 714.05 696 705.64 698.3 697.12 698.59 688.5 696.78 679.87 693.43 671.35 688.29 662.97 681.67 654.59 674.21 646.35 665.87 638.3 657.03 630.26 648.28 622.43 639.61 614.83 631.31 607.27 623.84 599.97 617.09 592.95 611.13 585.99 606.33 579.32 602.35 572.99 599.13 563.73 596.12 546.92 593.09 539.36 592.09 532.07 591.17 518.77 586.67 512.64 582.6 508.45 579.35 504.44 575.32 500.59 570.54 496.5 565.43 492.54 559.6 488.69 553.14 484.59 546.39 480.6 539.09 476.75 531.32 472.66 523.36 468.73 515.02 465 506.37 461.12 497.63 457.51 488.65 454.22 479.51 450.9 470.34 447.99 461.04 445.56 451.68 443.25 442.31 441.51 432.89 440.41 423.46 439.56 414.02 439.43 404.79 440 395.77 440.88 386.73 442.46 377.88 444.71 369.21 447.24 360.5 450.4 351.93 454.13 343.49 458.05 334.97 462.48 326.53 467.35 318.17 472.3 309.68 477.6 301.22 483.22 292.79 488.78 284.2 494.58 275.6 500.57 267.01 506.42 258.27 512.42 249.53 518.54 240.84 524.45 232.05 530.48 223.35 536.59 214.8 542.5 206.28 548.52 198.02 554.65 190.1 560.58 182.39 566.66 175.15 572.9 168.49 578.97 162.22 585.24 156.67 591.71 151.9 598.07 147.66 604.66 144.27 611.49 141.8 618.25 139.83 625.28 138.73 632.57 138.47 639.81 138.55 647.35 139.3 655.17 140.65 662.95 142 671.04 143.7 679.43 145.63 687.8 147.19 696.48 148.73 705.47 150.18" stroke-dasharray="3 4" transform="rotate(8.08, 711, 400)" opacity="0.73"></path><path d="M710.68 161.57C719.41 162.35 728.25 162.93 737.19 163.31 746.15 163.08 755.22 162.73 764.38 162.33 773.58 161.53 782.87 160.86 792.23 160.43 801.61 159.89 811.06 159.78 820.52 160.19 829.99 160.77 839.43 162.02 848.79 163.97 858.09 166.29 867.23 169.37 876.13 173.2 884.84 177.45 893.21 182.44 901.12 188.09 908.71 194.14 915.71 200.78 922 207.93 927.83 215.37 932.83 223.23 936.93 231.42 940.46 239.79 943.03 248.4 944.59 257.2 945.63 266.08 945.71 275.07 944.9 284.15 943.76 293.23 941.92 302.35 939.5 311.5 937.14 320.62 934.52 329.75 931.81 338.88 929.65 347.98 927.75 357.08 926.27 366.17 925.77 375.25 925.94 384.33 926.86 393.38 928.95 402.44 931.82 411.48 935.4 420.48 939.96 429.48 944.85 438.22 949.86 446.67 955.28 455.11 960.37 463.23 964.93 470.99 969.28 478.71 972.72 486.04 975.11 492.94 976.83 499.75 977.31 506.09 976.51 511.91 974.86 517.63 971.93 522.81 967.8 527.43 962.88 531.95 956.91 535.94 950.02 539.4 942.57 542.83 934.41 545.82 925.7 548.43 916.71 551.17 907.38 553.68 897.82 556.07 888.22 558.84 878.54 561.69 868.88 564.75 859.32 568.45 849.85 572.56 840.51 577.17 831.34 582.62 822.3 588.67 813.42 595.33 804.71 602.81 796.11 610.82 787.63 619.24 779.28 628.15 770.99 637.16 762.75 646.03 754.6 654.77 746.45 662.91 738.3 670.13 730.18 676.52 722.03 681.53 713.85 684.92 705.67 686.95 697.44 687.13 689.16 685.39 680.88 682.25 672.75 677.45 664.79 671.27 656.83 664.29 649.05 656.46 641.46 648.08 633.9 639.72 626.54 631.35 619.44 623.22 612.35 615.77 605.53 608.89 598.99 602.68 592.48 597.48 586.26 593 580.36 589.22 571.68 585.26 555.87 580.49 548.71 578.87 541.74 577.58 528.87 573.24 522.86 569.68 516.74 565.2 504.87 552.49 499.04 544.33 494.94 538.45 490.96 532.02 487.1 525.09 483.03 517.99 479.11 510.47 475.4 502.6 471.55 494.63 467.96 486.37 464.69 477.88 461.41 469.35 458.53 460.63 456.11 451.79 453.81 442.93 452.07 433.95 450.94 424.89 450.06 415.83 449.88 406.9 450.38 398.11 451.17 389.31 452.65 380.64 454.79 372.08 457.19 363.49 460.21 354.99 463.79 346.58 467.57 338.1 471.84 329.67 476.56 321.28 481.37 312.8 486.55 304.33 492.03 295.87 497.49 287.3 503.2 278.74 509.11 270.19 514.91 261.55 520.86 252.94 526.94 244.41 532.85 235.86 538.87 227.44 544.98 219.22 550.9 211.09 556.92 203.27 563.05 195.82 568.99 188.63 575.06 181.93 581.26 175.84 587.31 170.14 593.52 165.15 599.91 160.93 606.18 157.19 612.66 154.28 619.36 152.21 625.97 150.61 632.83 149.8 639.93 149.76 646.98 150 654.3 150.85 661.89 152.24 669.44 153.6 677.29 155.27 685.42 157.15 693.53 158.66 701.95 160.15 710.68 161.57" stroke-dasharray="5 11" transform="rotate(12.12, 711, 400)" opacity="0.64"></path><path d="M715.91 172.95C724.36 173.74 732.91 174.34 741.56 174.76 750.21 174.6 758.96 174.33 767.78 174 776.62 173.28 785.52 172.66 794.46 172.24 803.41 171.67 812.38 171.49 821.31 171.75 830.22 172.12 839.05 173.09 847.74 174.69 856.34 176.59 864.73 179.19 872.82 182.48 880.72 186.15 888.22 190.51 895.23 195.52 901.92 200.9 908.02 206.86 913.42 213.35 918.39 220.13 922.58 227.35 925.92 234.94 928.78 242.72 930.76 250.79 931.85 259.09 932.51 267.49 932.35 276.05 931.42 284.72 930.28 293.43 928.55 302.21 926.35 311.03 924.28 319.85 922.02 328.7 919.72 337.53 917.97 346.36 916.47 355.17 915.37 363.96 915.16 372.74 915.56 381.49 916.6 390.18 918.7 398.88 921.48 407.52 924.87 416.08 929.14 424.63 933.69 432.89 938.34 440.82 943.38 448.74 948.13 456.31 952.42 463.51 956.55 470.67 959.89 477.43 962.32 483.76 964.56 492.92 962.27 508.79 957.71 515.46 953.57 519.69 948.43 523.48 942.4 526.85 935.82 530.26 928.52 533.33 920.63 536.14 912.42 539.14 903.8 542.03 894.89 544.88 885.87 548.14 876.7 551.55 867.47 555.21 858.27 559.49 849.09 564.17 839.98 569.32 830.99 575.21 822.09 581.63 813.3 588.55 804.65 596.15 796.11 604.15 787.68 612.43 779.36 621.05 771.11 629.67 762.95 638.05 754.85 646.24 746.8 653.79 738.78 660.42 730.81 666.25 722.83 670.78 714.87 673.81 706.92 675.6 698.97 675.68 691.01 674 683.06 671.06 675.29 666.59 667.71 660.83 660.14 654.33 652.77 646.99 645.62 639.09 638.47 631.14 631.55 623.1 624.89 615.19 618.23 607.82 611.83 600.89 605.71 594.51 599.6 588.99 593.77 584.11 588.23 579.84 580.06 575.01 565.08 568.51 558.23 566.19 551.51 564.39 538.96 559.81 533.02 556.51 526.96 552.56 515.1 541.48 509.26 534.33 505.17 529.2 501.19 523.52 497.33 517.35 493.28 511.03 489.39 504.27 485.7 497.13 481.9 489.9 478.35 482.33 475.11 474.49 471.87 466.6 469.03 458.47 466.63 450.14 464.36 441.81 462.62 433.29 461.48 424.63 460.57 415.97 460.34 407.36 460.77 398.84 461.48 390.31 462.85 381.84 464.85 373.44 467.12 365.01 469.99 356.63 473.41 348.3 477.03 339.92 481.14 331.55 485.68 323.22 490.33 314.81 495.36 306.41 500.69 298.03 506.03 289.57 511.62 281.13 517.43 272.73 523.15 264.3 529.03 255.93 535.05 247.67 540.93 239.45 546.92 231.4 553.01 223.6 558.93 215.94 564.95 208.61 571.07 201.7 577.01 195.07 583.08 188.95 589.25 183.44 595.29 178.32 601.46 173.89 607.79 170.2 614.01 166.96 620.41 164.49 626.99 162.81 633.5 161.54 640.22 160.99 647.16 161.15 654.05 161.52 661.18 162.46 668.56 163.87 675.91 165.22 683.53 166.85 691.42 168.67 699.29 170.13 707.46 171.58 715.91 172.95" stroke-dasharray="11 10" transform="rotate(16.16, 711, 400)" opacity="0.48"></path><path d="M720.87 184.34C729.03 185.12 737.27 185.74 745.58 186.2 753.89 186.11 762.28 185.92 770.7 185.68 779.13 185.03 787.59 184.48 796.05 184.09 804.5 183.53 812.92 183.29 821.27 183.43 829.56 183.64 837.73 184.38 845.71 185.66 853.58 187.19 861.19 189.35 868.46 192.15 875.53 195.27 882.18 199.04 888.33 203.42 894.17 208.14 899.42 213.43 904 219.24 908.19 225.34 911.66 231.89 914.35 238.82 916.64 245.97 918.14 253.43 918.86 261.14 919.24 268.98 918.93 277.02 917.96 285.19 916.87 293.44 915.3 301.79 913.35 310.18 911.59 318.62 909.69 327.08 907.8 335.53 906.43 344.01 905.32 352.46 904.55 360.87 904.62 369.29 905.21 377.67 906.36 385.96 908.46 394.26 911.13 402.48 914.34 410.58 918.33 418.68 922.55 426.46 926.85 433.9 931.52 441.33 935.93 448.4 939.94 455.1 943.85 461.76 947.07 468.03 949.49 473.89 951.93 482.4 950.83 497.22 947.19 503.56 943.78 507.65 939.42 511.38 934.21 514.79 928.47 518.29 922.01 521.56 914.95 524.65 907.55 527.99 899.69 531.29 891.49 534.63 883.13 538.4 874.55 542.35 865.84 546.56 857.11 551.35 848.33 556.53 839.57 562.11 830.86 568.35 822.21 575.01 813.63 582.09 805.15 589.7 796.76 597.59 788.46 605.65 780.25 613.93 772.12 622.11 764.08 629.98 756.11 637.6 748.19 644.55 740.34 650.62 732.52 655.91 724.74 659.99 717.01 662.67 709.29 664.23 701.6 664.23 693.96 662.61 686.31 659.87 678.87 655.72 671.66 650.37 664.44 644.33 657.44 637.47 650.67 630.05 643.9 622.53 637.37 614.84 631.1 607.2 624.82 599.97 618.79 593.07 613.03 586.6 607.26 580.85 601.76 575.64 596.53 570.96 588.77 565.37 574.46 557.21 567.86 554.16 561.32 551.76 548.99 546.58 543.1 543.33 537.05 539.66 525.19 529.74 519.34 523.4 515.26 518.86 511.29 513.82 507.45 508.31 503.43 502.67 499.57 496.6 495.92 490.12 492.16 483.57 488.67 476.65 485.48 469.42 482.29 462.15 479.49 454.59 477.13 446.79 474.89 438.97 473.16 430.93 472.01 422.69 471.08 414.44 470.8 406.2 471.16 397.97 471.79 389.74 473.05 381.52 474.92 373.33 477.05 365.12 479.76 356.92 483 348.73 486.45 340.52 490.37 332.31 494.73 324.1 499.2 315.86 504.05 307.62 509.21 299.41 514.4 291.17 519.85 282.96 525.52 274.81 531.13 266.68 536.92 258.64 542.85 250.76 548.68 242.95 554.62 235.36 560.66 228.05 566.57 220.92 572.57 214.15 578.66 207.82 584.6 201.78 590.65 196.26 596.8 191.34 602.82 186.8 608.97 182.92 615.25 179.74 621.42 176.98 627.74 174.93 634.24 173.61 640.65 172.63 647.25 172.32 654.06 172.64 660.8 173.13 667.77 174.12 674.96 175.54 682.12 176.87 689.52 178.46 697.17 180.21 704.81 181.61 712.7 183.01 720.87 184.34" stroke-dasharray="10 5" transform="rotate(20.200000000000003, 711, 400)" opacity="0.19"></path><path d="M725.29 195.73C733.14 196.5 741.05 197.14 748.98 197.63 756.93 197.61 764.91 197.5 772.89 197.34 780.87 196.79 788.84 196.31 796.77 195.97 804.68 195.43 812.51 195.17 820.22 195.23 827.86 195.32 835.34 195.85 842.59 196.88 849.71 198.09 856.54 199.86 863.01 202.21 869.28 204.83 875.11 208.04 880.44 211.83 885.49 215.92 889.97 220.55 893.81 225.69 897.33 231.1 900.17 236.96 902.32 243.21 904.13 249.68 905.26 256.48 905.7 263.55 905.9 270.78 905.51 278.22 904.57 285.83 903.58 293.53 902.21 301.36 900.54 309.26 899.09 317.21 897.56 325.21 896.05 333.21 895.05 341.25 894.28 349.28 893.83 357.26 894.14 365.26 894.89 373.21 896.14 381.07 898.22 388.93 900.79 396.71 903.8 404.35 907.53 411.99 911.44 419.32 915.4 426.3 919.7 433.28 923.79 439.9 927.52 446.17 931.2 452.41 934.27 458.28 936.64 463.76 939.22 471.77 939.1 485.91 936.29 492.1 933.53 496.16 929.89 499.95 925.45 503.49 920.51 507.17 914.87 510.71 908.62 514.15 902.03 517.86 894.96 521.59 887.5 525.41 879.85 529.65 871.93 534.09 863.82 538.79 855.65 544.02 847.37 549.58 839.05 555.5 830.74 561.96 822.43 568.77 814.17 575.88 805.96 583.41 797.81 591.11 789.73 598.87 781.72 606.76 773.78 614.46 765.93 621.79 758.13 628.83 750.4 635.21 742.75 640.71 735.13 645.5 727.57 649.14 720.08 651.5 712.61 652.84 705.18 652.77 697.83 651.23 690.47 648.67 683.35 644.82 676.46 639.87 669.57 634.27 662.91 627.9 656.49 620.96 650.05 613.87 643.86 606.57 637.92 599.23 631.97 592.2 626.26 585.39 620.8 578.91 615.33 573.02 610.09 567.57 605.11 562.58 597.69 556.33 583.91 546.66 577.48 542.86 571.08 539.8 558.89 533.79 553.02 530.41 546.98 526.82 535.11 517.6 529.26 511.84 525.2 507.77 521.25 503.24 517.43 498.26 513.46 493.2 509.65 487.71 506.04 481.82 502.35 475.87 498.91 469.54 495.78 462.88 492.67 456.19 489.92 449.18 487.6 441.88 485.4 434.58 483.7 427.01 482.54 419.2 481.6 411.38 481.28 403.52 481.56 395.63 482.11 387.74 483.26 379.82 484.99 371.89 486.98 363.96 489.52 356 492.57 348.04 495.83 340.07 499.56 332.09 503.71 324.11 507.98 316.13 512.63 308.15 517.59 300.21 522.6 292.27 527.88 284.39 533.39 276.61 538.87 268.87 544.53 261.26 550.35 253.83 556.08 246.52 561.95 239.46 567.91 232.7 573.77 226.15 579.73 219.98 585.77 214.25 591.69 208.82 597.71 203.91 603.82 199.58 609.82 195.6 615.92 192.25 622.15 189.56 628.27 187.24 634.53 185.58 640.94 184.58 647.26 183.87 653.76 183.76 660.42 184.22 667.04 184.81 673.85 185.83 680.85 187.24 687.82 188.55 695.01 190.08 702.42 191.76 709.81 193.1 717.43 194.44 725.29 195.73" stroke-dasharray="6 3" transform="rotate(24.24, 711, 400)" opacity="0.32"></path><path d="M728.93 207.12C736.45 207.88 743.99 208.53 751.53 209.06 759.07 209.11 766.61 209.08 774.12 209 781.61 208.55 789.06 208.16 796.42 207.87 803.76 207.38 810.97 207.11 818.02 207.13 825 207.13 831.78 207.51 838.29 208.32 844.68 209.26 850.75 210.7 856.45 212.65 864.49 216.17 877.84 226.26 882.94 232.75 885.88 237.49 888.2 242.66 889.9 248.23 891.34 254.01 892.19 260.12 892.45 266.53 892.54 273.09 892.14 279.89 891.29 286.88 890.45 293.97 889.3 301.21 887.92 308.55 886.79 315.95 885.61 323.42 884.47 330.92 883.81 338.45 883.37 345.99 883.2 353.5 883.71 361.03 884.61 368.51 885.92 375.91 887.97 383.32 890.44 390.64 893.27 397.83 896.73 405.02 900.34 411.9 903.98 418.47 907.93 425.03 911.7 431.26 915.14 437.15 920.03 445.81 926.42 461.44 927.51 468.45 927.1 475.19 921.34 487.47 916.11 493.18 911.93 497.1 907.07 500.94 901.61 504.75 895.82 508.83 889.53 512.98 882.84 517.25 875.93 521.9 868.72 526.76 861.27 531.86 853.72 537.42 846.01 543.27 838.21 549.4 830.39 555.98 822.52 562.82 814.66 569.87 806.81 577.22 798.99 584.66 791.23 592.06 783.5 599.5 775.83 606.69 768.23 613.47 760.68 619.94 753.19 625.74 745.78 630.71 738.4 635.01 731.08 638.25 723.85 640.3 716.63 641.45 709.48 641.31 702.42 639.84 695.35 637.46 688.53 633.91 681.94 629.34 675.35 624.18 668.99 618.27 662.88 611.81 656.75 605.17 650.86 598.27 645.2 591.27 639.53 584.5 634.09 577.84 628.89 571.41 623.65 565.47 618.64 559.87 613.86 554.64 606.71 547.87 593.32 536.86 587.03 532.36 580.72 528.63 568.61 521.62 562.74 517.98 556.71 514.28 544.85 505.37 539.01 500 534.98 496.25 531.06 492.1 527.27 487.55 523.36 482.94 519.61 477.93 516.06 472.54 512.45 467.1 509.1 461.3 506.03 455.16 503 448.98 500.32 442.48 498.05 435.68 495.9 428.87 494.23 421.77 493.07 414.4 492.13 407.03 491.76 399.57 491.98 392.05 492.44 384.54 493.48 376.97 495.07 369.37 496.91 361.76 499.27 354.12 502.13 346.47 505.19 338.82 508.71 331.15 512.63 323.49 516.69 315.85 521.12 308.23 525.86 300.66 530.67 293.12 535.75 285.66 541.06 278.32 546.37 271.06 551.88 263.95 557.54 257.07 563.15 250.31 568.9 243.83 574.76 237.67 580.54 231.73 586.42 226.18 592.38 221.08 598.25 216.26 604.21 211.94 610.26 208.19 616.21 204.76 622.26 201.91 628.41 199.68 634.48 197.77 640.66 196.45 646.96 195.74 653.2 195.27 659.58 195.33 666.11 195.9 672.59 196.56 679.23 197.6 686.04 198.98 692.82 200.25 699.79 201.71 706.93 203.31 714.07 204.59 721.4 205.87 728.93 207.12" stroke-dasharray="7 7" transform="rotate(28.28, 711, 400)" opacity="0.88"></path><path d="M731.59 218.5C738.76 219.26 745.91 219.92 753.03 220.48 760.15 220.59 767.22 220.64 774.22 220.65 781.21 220.3 788.11 219.99 794.89 219.78 801.63 219.35 808.22 219.11 814.61 219.11 823.98 219.19 841.18 221.27 848.84 223.45 855.83 226.36 867.24 234.89 871.5 240.48 874.9 246.83 878.7 261.78 879.18 270.22 879.24 276.1 878.89 282.23 878.17 288.57 877.51 295.01 876.61 301.63 875.53 308.36 874.71 315.16 873.86 322.05 873.07 329 872.72 335.98 872.57 342.99 872.65 349.98 873.34 357 874.36 363.99 875.72 370.92 877.73 377.85 880.09 384.71 882.74 391.45 885.95 398.2 889.26 404.67 892.59 410.85 896.21 417.03 899.66 422.92 902.82 428.51 907.38 436.75 913.58 451.81 914.87 458.7 914.89 465.41 910.54 478 906.24 484.05 902.75 488.22 898.62 492.37 893.91 496.53 888.89 500.96 883.37 505.48 877.44 510.13 871.28 515.12 864.79 520.31 858.04 525.71 851.16 531.49 844.08 537.51 836.87 543.76 829.61 550.34 822.26 557.11 814.86 564 807.47 571.09 800.06 578.18 792.68 585.17 785.31 592.13 777.98 598.79 770.7 605.01 763.45 610.91 756.26 616.16 749.14 620.61 742.04 624.45 735.01 627.3 728.06 629.08 721.12 630.05 714.25 629.85 707.48 628.45 700.7 626.25 694.16 622.98 687.86 618.78 681.55 614.03 675.48 608.59 669.64 602.6 663.78 596.42 658.14 589.94 652.74 583.31 647.31 576.82 642.09 570.38 637.1 564.08 632.06 558.16 627.24 552.5 622.61 547.12 617.93 542.25 613.43 537.67 609.11 533.4 602.59 527.84 590.15 518.33 584.17 514.09 578.09 510.25 566.21 502.31 560.37 497.94 554.37 493.39 542.65 482.74 536.98 476.55 533.14 472.28 529.46 467.66 525.99 462.67 522.48 457.66 519.21 452.31 516.23 446.62 513.29 440.9 510.69 434.87 508.48 428.53 506.39 422.18 504.75 415.54 503.6 408.62 502.65 401.69 502.26 394.66 502.41 387.55 502.79 380.45 503.71 373.27 505.17 366.05 506.84 358.83 509.03 351.57 511.69 344.3 514.54 337.04 517.83 329.76 521.52 322.52 525.35 315.29 529.53 308.11 534.03 301 538.61 293.94 543.47 286.98 548.55 280.16 553.66 273.44 558.97 266.91 564.45 260.61 569.9 254.46 575.5 248.59 581.21 243.07 586.86 237.75 592.62 232.83 598.48 228.35 604.25 224.13 610.12 220.4 616.07 217.19 621.95 214.27 627.91 211.9 633.96 210.09 639.95 208.54 646.03 207.54 652.21 207.08 658.34 206.81 664.59 207.02 670.96 207.67 677.29 208.37 683.75 209.41 690.35 210.75 696.93 211.97 703.66 213.36 710.53 214.88 717.4 216.09 724.42 217.31 731.59 218.5" stroke-dasharray="4 7" transform="rotate(32.32, 711, 400)" opacity="0.68"></path><path d="M733.13 229.89C739.93 230.64 746.67 231.3 753.34 231.88 760.01 232.06 766.6 232.19 773.08 232.27 779.55 232.03 785.9 231.82 792.09 231.69 801.23 231.24 818.36 231.17 826.2 231.8 833.57 232.81 846.3 236.98 851.51 240.21 856.02 244.13 862.44 254.33 864.33 260.53 865.58 267.34 865.93 282.7 865.24 291.11 864.79 296.89 864.14 302.85 863.36 308.95 862.84 315.13 862.31 321.42 861.84 327.78 861.78 334.18 861.88 340.63 862.19 347.09 863.03 353.58 864.14 360.06 865.54 366.5 867.5 372.95 869.73 379.34 872.21 385.66 875.17 391.98 878.21 398.06 881.23 403.89 884.54 409.72 887.67 415.31 890.56 420.64 894.77 428.54 900.71 443.22 902.12 450.06 902.47 456.82 899.32 469.81 895.85 476.2 892.98 480.62 889.52 485.05 885.52 489.53 881.22 494.24 876.44 499.06 871.25 504.01 865.84 509.26 860.08 514.67 854.03 520.26 847.84 526.16 841.43 532.24 834.85 538.47 828.19 544.96 821.42 551.56 814.56 558.19 807.68 564.96 800.75 571.65 793.82 578.18 786.88 584.62 779.95 590.74 773.05 596.41 766.17 601.74 759.32 606.45 752.54 610.41 745.76 613.81 739.05 616.31 732.41 617.83 725.77 618.64 719.21 618.39 712.73 617.06 706.24 615.03 699.99 612.03 693.97 608.18 687.93 603.84 682.12 598.84 676.53 593.32 670.91 587.6 665.51 581.55 660.32 575.32 655.11 569.16 650.09 562.98 645.27 556.87 640.4 551.06 635.72 545.41 631.22 539.98 626.66 534.95 622.26 530.17 618.03 525.64 611.61 519.57 599.29 508.94 593.34 504.15 587.29 499.8 575.44 491.14 569.62 486.58 563.68 481.97 552.1 471.56 546.54 465.66 541 459.46 530.84 445.46 526.38 437.67 523.53 432.36 521.02 426.75 518.89 420.84 516.87 414.92 515.27 408.72 514.14 402.25 513.19 395.77 512.76 389.18 512.85 382.51 513.15 375.84 513.96 369.09 515.27 362.3 516.8 355.52 518.8 348.7 521.25 341.87 523.88 335.06 526.94 328.26 530.38 321.49 533.96 314.76 537.89 308.08 542.13 301.49 546.45 294.98 551.05 288.58 555.89 282.35 560.77 276.22 565.85 270.3 571.1 264.62 576.35 259.1 581.75 253.87 587.28 248.99 592.77 244.3 598.37 240 604.07 236.12 609.71 232.49 615.45 229.3 621.26 226.61 627.02 224.17 632.86 222.23 638.78 220.79 644.64 219.58 650.6 218.85 656.63 218.6 662.62 218.49 668.71 218.81 674.9 219.51 681.05 220.24 687.31 221.26 693.68 222.55 700.03 223.71 706.5 225.02 713.07 226.45 719.64 227.59 726.33 228.75 733.13 229.89" stroke-dasharray="1 6" transform="rotate(36.36, 711, 400)" opacity="0.88"></path><path d="M733.46 241.28C739.86 242.01 746.18 242.68 752.39 243.28 758.6 243.52 764.7 243.71 770.67 243.88 782.54 243.32 793.77 243.02 804.12 243.23 814.2 243.02 823.18 243.91 830.78 246.05 837.91 248.49 843.48 252.49 847.36 257.98 850.77 264.04 852.58 271.56 852.89 280.28 853.24 289.48 852.63 299.67 851.44 310.56 851.26 321.71 851.27 333.34 851.8 345.16 852.77 351.11 853.95 357.07 855.36 363.03 857.26 369 859.37 374.94 861.68 380.84 864.4 386.74 867.17 392.46 869.91 397.97 872.91 403.48 875.75 408.81 878.37 413.93 883.74 424.21 887.49 433.81 889.3 442.79 890.22 452.03 888.75 460.94 884.99 469.71 880.06 479.12 873.02 488.79 864.25 498.83 854.67 509.84 843.78 521.44 832.01 533.46 819.91 546.19 807.26 558.92 794.4 571.05 781.49 582.7 768.51 592.66 755.68 600.12 749.27 603.1 742.91 605.27 736.6 606.56 730.3 607.21 724.06 606.93 717.88 605.68 711.71 603.8 705.74 601.07 699.98 597.56 694.22 593.61 688.66 589.04 683.3 583.97 672.52 573.31 662.49 561.64 653.19 549.76 643.72 538.73 634.85 528.22 626.59 518.48 618 510.14 609.85 502.45 602.14 495.21 593.96 489.01 586.1 482.75 578.6 476.15 570.62 469.99 563.01 463.08 555.95 455.26 548.63 447.52 542.04 438.69 536.47 428.78 533.74 423.81 531.33 418.57 529.27 413.06 527.33 407.54 525.78 401.76 524.67 395.72 523.73 389.69 523.28 383.54 523.3 377.32 523.53 371.11 524.23 364.83 525.4 358.51 528.33 345.92 533.02 333.23 539.23 320.71 546 308.39 554.05 296.4 563.1 285.06 572.36 274.17 582.4 264.2 593 255.51 603.54 247.55 614.53 241.11 625.83 236.45 636.97 232.62 648.45 230.56 660.18 230.27 671.78 230.39 683.72 231.83 695.94 234.38 702.04 235.46 708.22 236.69 714.47 238.03 720.73 239.09 727.06 240.19 733.46 241.28" stroke-dasharray="9 3" transform="rotate(40.400000000000006, 711, 400)" opacity="1.00"></path><path d="M732.57 252.67C744.55 253.75 756.07 254.68 766.99 255.47 777.83 255.12 787.96 255.01 797.16 255.33 806.13 255.17 814.01 255.93 820.59 257.76 829.21 261.41 838.76 276.02 840.01 286.78 840.59 294.74 840.41 303.68 839.77 313.36 840.09 323.26 840.58 333.72 841.49 344.48 844.03 355.31 847.28 366.33 851.15 377.33 856.47 388.34 861.64 398.79 866.24 408.65 871.12 418.56 874.61 428 876.43 437.03 877.57 446.32 876.65 455.46 873.69 464.56 869.77 474.24 863.92 484.19 856.44 494.46 848.22 505.5 838.71 516.95 828.25 528.62 817.44 540.73 805.99 552.62 794.21 563.75 782.34 574.3 770.29 583.19 758.29 589.73 746.29 594.45 734.37 596.09 722.66 594.29 710.95 590.35 699.96 583.53 689.72 574.56 679.4 564.78 669.73 553.93 660.71 542.7 651.52 532.05 642.85 521.68 634.71 511.86 626.27 503.17 618.21 495.02 610.55 487.29 602.48 480.5 594.71 473.74 587.3 466.82 579.5 460.37 572.08 453.37 565.22 445.69 558.17 438.14 551.85 429.7 546.51 420.35 541.38 411.01 537.51 400.7 535.2 389.49 533.52 378.28 533.67 366.73 535.55 355.07 538.16 343.48 542.41 331.87 548.09 320.5 554.32 309.33 561.78 298.56 570.21 288.5 578.9 278.86 588.38 270.16 598.41 262.7 608.47 255.88 618.99 250.49 629.82 246.72 640.56 243.61 651.61 242.07 662.87 242.1 674.05 242.38 685.5 243.82 697.13 246.22 708.74 248.07 720.59 250.29 732.57 252.67" stroke-dasharray="5 8" transform="rotate(44.44, 711, 400)" opacity="0.56"></path><path d="M730.5 264.05C741.63 265.13 752.22 266.12 762.14 267.02 771.99 266.89 781.08 266.97 789.24 267.42 800.68 267.72 817.41 272.72 822.43 278.08 825.17 282.32 826.79 287.77 827.39 294.29 828.23 301.12 828.48 308.9 828.35 317.44 829.13 326.16 830.03 335.5 831.26 345.23 833.87 355.03 837.02 365.13 840.61 375.37 845.45 385.61 850.08 395.5 854.18 404.99 858.58 414.55 861.78 423.82 863.54 432.86 864.82 442.14 864.3 451.39 862.02 460.69 858.96 470.47 854.16 480.5 847.84 490.79 840.89 501.64 832.68 512.74 823.5 523.86 813.98 535.21 803.74 546.17 793.08 556.26 782.3 565.72 771.24 573.57 760.12 579.24 748.99 583.31 737.84 584.63 726.8 582.9 715.77 579.34 705.34 573.19 695.55 565.07 685.69 556.17 676.39 546.17 667.64 535.67 658.74 525.53 650.28 515.45 642.28 505.72 634.01 496.88 626.08 488.44 618.51 480.38 610.6 473.11 602.97 465.95 595.71 458.74 588.14 451.98 580.97 444.86 574.35 437.25 567.61 429.81 561.59 421.67 556.51 412.82 551.64 403.98 547.96 394.35 545.73 383.98 544.07 373.6 544.1 363 545.73 352.36 548.01 341.8 551.83 331.3 556.98 321.11 562.65 311.11 569.49 301.59 577.27 292.79 585.33 284.38 594.18 276.9 603.59 270.59 613.07 264.83 623.03 260.38 633.29 257.39 643.53 254.9 654.06 253.8 664.76 254.06 675.43 254.45 686.31 255.85 697.29 258.08 708.26 259.78 719.37 261.83 730.5 264.05" stroke-dasharray="8 9" transform="rotate(48.48, 711, 400)" opacity="0.07"></path><path d="M727.37 275.44C737.63 276.5 747.3 277.54 756.26 278.54 765.17 278.62 773.31 278.9 780.54 279.49 790.68 279.93 805.46 284.37 809.99 288.96 813.41 294.84 816.52 311.97 817.2 322.84 818.36 330.48 819.61 338.77 821.09 347.54 823.74 356.36 826.77 365.58 830.08 375.08 834.45 384.58 838.57 393.92 842.18 403.04 846.11 412.22 848.99 421.29 850.65 430.25 851.97 439.42 851.77 448.65 850.02 457.97 847.67 467.66 843.78 477.58 838.5 487.65 832.7 498.1 825.69 508.66 817.72 519.08 809.44 529.56 800.41 539.53 790.86 548.56 781.2 556.94 771.17 563.8 760.97 568.65 750.75 572.12 740.41 573.16 730.09 571.51 719.76 568.3 709.92 562.8 700.6 555.5 691.23 547.47 682.31 538.35 673.86 528.63 665.27 519.09 657.06 509.45 649.23 499.99 641.18 491.18 633.43 482.64 626 474.41 618.3 466.84 610.89 459.38 603.84 451.96 596.55 444.95 589.67 437.72 583.35 430.17 576.95 422.79 571.26 414.91 566.46 406.5 561.88 398.12 558.41 389.12 556.26 379.55 554.63 369.98 554.56 360.31 555.94 350.71 557.91 341.17 561.29 331.79 565.91 322.78 571.01 313.94 577.21 305.63 584.32 298.05 591.71 290.81 599.86 284.46 608.58 279.21 617.42 274.4 626.73 270.78 636.34 268.44 645.98 266.48 655.89 265.72 665.96 266.14 676.02 266.58 686.24 267.9 696.51 269.96 706.78 271.49 717.11 273.36 727.37 275.44" stroke-dasharray="8 1" transform="rotate(52.52, 711, 400)" opacity="0.64"></path><path d="M723.35 286.83C732.73 287.87 741.5 288.94 749.57 290.02 757.6 290.29 764.86 290.76 771.28 291.5 780.31 292.13 793.54 296.26 797.75 300.27 801.15 305.29 805.03 320.02 806.31 329.51 807.79 336.18 809.32 343.52 810.98 351.4 813.62 359.31 816.51 367.7 819.55 376.49 823.47 385.28 827.11 394.07 830.26 402.78 833.72 411.54 836.28 420.32 837.79 429.09 839.09 438.02 839.09 447.08 837.76 456.22 835.99 465.64 832.86 475.23 828.49 484.87 823.7 494.75 817.78 504.61 810.94 514.2 803.82 523.71 795.94 532.64 787.5 540.61 778.94 547.95 769.94 553.86 760.68 557.97 751.4 560.89 741.9 561.68 732.33 560.13 722.75 557.26 713.53 552.36 704.72 545.85 695.87 538.67 687.37 530.43 679.24 521.54 671.02 512.7 663.09 503.62 655.5 494.57 647.73 485.99 640.21 477.54 633 469.32 625.59 461.62 618.45 454.03 611.67 446.5 604.73 439.34 598.2 432.06 592.21 424.59 586.2 417.3 580.86 409.66 576.37 401.67 572.09 393.71 568.83 385.31 566.79 376.52 565.21 367.73 565.04 358.97 566.19 350.37 567.86 341.83 570.81 333.53 574.9 325.66 579.43 317.94 584.98 310.77 591.39 304.34 598.08 298.17 605.5 292.85 613.47 288.54 621.59 284.56 630.18 281.64 639.07 279.85 648.01 278.31 657.23 277.81 666.57 278.31 675.94 278.77 685.43 279.98 694.93 281.84 704.45 283.21 713.96 284.91 723.35 286.83" stroke-dasharray="7 7" transform="rotate(56.56, 711, 400)" opacity="0.91"></path><path d="M718.65 298.22C727.15 299.22 735.06 300.32 742.3 301.46 752.74 302.22 769.78 304.29 776.23 306.14 781.8 308.31 789.28 316.26 791.55 322.21 793.22 326.5 794.56 331.56 795.68 337.34 797.41 343.16 799.15 349.65 800.94 356.71 803.53 363.79 806.25 371.41 809.02 379.51 812.51 387.6 815.69 395.81 818.41 404.05 821.42 412.33 823.65 420.72 824.98 429.17 826.21 437.73 826.32 446.44 825.31 455.22 823.98 464.18 821.48 473.25 817.88 482.28 813.96 491.43 809.01 500.45 803.19 509.11 797.15 517.61 790.35 525.48 782.96 532.41 775.47 538.75 767.49 543.78 759.17 547.2 750.83 549.63 742.2 550.19 733.4 548.74 724.6 546.19 716.04 541.87 707.78 536.12 699.5 529.77 691.47 522.4 683.74 514.37 675.93 506.3 668.35 497.89 661.06 489.39 653.64 481.19 646.44 473.02 639.53 464.99 632.46 457.35 625.67 449.78 619.24 442.31 612.7 435.12 606.56 427.88 600.95 420.58 595.36 413.41 590.4 406.05 586.24 398.48 582.28 390.95 579.25 383.14 577.33 375.1 575.8 367.05 575.54 359.16 576.48 351.53 577.86 343.94 580.4 336.68 583.97 329.88 587.93 323.2 592.84 317.08 598.53 311.67 604.5 306.47 611.16 302.06 618.35 298.55 625.7 295.28 633.49 292.94 641.6 291.58 649.78 290.36 658.21 290.03 666.77 290.56 675.37 290.99 684.08 292.08 692.76 293.73 701.47 294.93 710.14 296.45 718.65 298.22" stroke-dasharray="8 10" transform="rotate(60.599999999999994, 711, 400)" opacity="0.14"></path><path d="M713.53 309.6C721.17 310.57 728.25 311.67 734.71 312.86 744.05 313.84 759.32 316.36 765.2 318.29 774.13 324.01 783.1 338.81 785.3 346.12 787.22 351.23 789.1 356.97 790.95 363.3 793.45 369.62 795.99 376.51 798.49 383.93 801.57 391.34 804.33 398.93 806.65 406.64 809.22 414.37 811.13 422.26 812.26 430.24 813.36 438.3 813.52 446.49 812.74 454.72 811.74 463.05 809.74 471.43 806.78 479.7 803.59 487.99 799.48 496.08 794.57 503.74 789.48 511.2 783.68 518.02 777.29 523.94 770.8 529.32 763.8 533.54 756.42 536.34 749.01 538.32 741.26 538.7 733.26 537.35 725.26 535.11 717.4 531.34 709.74 526.31 702.07 520.75 694.57 514.26 687.29 507.1 679.97 499.84 672.82 492.18 665.91 484.35 658.91 476.69 652.11 468.96 645.57 461.3 638.94 453.9 632.56 446.54 626.54 439.27 620.46 432.21 614.77 425.15 609.58 418.09 604.44 411.14 599.89 404.1 596.08 396.99 592.45 389.9 589.66 382.68 587.86 375.37 586.4 368.05 586.07 360.99 586.81 354.27 587.92 347.57 590.06 341.25 593.13 335.43 596.54 329.69 600.8 324.52 605.79 320.01 611.03 315.65 616.91 312.01 623.29 309.17 629.83 306.49 636.8 304.61 644.06 303.57 651.42 302.59 659.02 302.37 666.74 302.87 674.51 303.24 682.38 304.18 690.22 305.61 698.08 306.65 705.89 308 713.53 309.6" stroke-dasharray="2 7" transform="rotate(64.64, 711, 400)" opacity="0.70"></path><path d="M708.28 320.99C718.21 322.45 735.41 325.37 742.58 326.97 754.31 330.39 766.92 339.16 769.75 343.87 772.68 349.14 778.17 362.66 781.01 370.86 783.39 376.51 785.73 382.71 787.96 389.43 790.65 396.16 793.01 403.11 794.95 410.2 797.12 417.31 798.7 424.59 799.63 431.96 800.57 439.38 800.73 446.91 800.1 454.44 799.33 462.01 797.71 469.56 795.28 476.95 792.69 484.29 789.3 491.38 785.19 498.01 780.94 504.43 776.03 510.22 770.55 515.18 765 519.68 758.93 523.15 752.46 525.4 745.95 526.98 739.08 527.2 731.9 525.96 724.73 524.01 717.6 520.76 710.6 516.41 703.58 511.62 696.68 505.97 689.94 499.7 683.16 493.28 676.52 486.44 670.08 479.36 663.59 472.35 657.26 465.22 651.18 458.08 645.05 451.1 639.16 444.12 633.61 437.21 628.04 430.45 622.84 423.7 618.12 417 613.45 410.39 609.33 403.75 605.88 397.13 602.59 390.54 600.05 383.92 598.39 377.32 597.01 370.71 596.63 364.44 597.18 358.55 598.93 349.96 607.1 335.2 613.21 329.29 617.72 325.63 622.82 322.63 628.38 320.33 634.09 318.12 640.21 316.59 646.61 315.77 653.1 314.96 659.83 314.78 666.68 315.21 673.58 315.5 680.58 316.27 687.55 317.5 694.54 318.37 701.49 319.54 708.28 320.99" stroke-dasharray="0 7" transform="rotate(68.68, 711, 400)" opacity="0.71"></path><path d="M703.17 332.38C715.09 333.65 725.3 335.75 733.53 338.53 741.78 340.05 748.23 342.96 752.92 347.41 758.1 351.41 762.17 357.45 765.29 365.51 769.75 373.48 773.89 383.59 777.43 395.66 782.39 407.73 785.75 420.73 787.13 434 788.65 447.34 787.44 460.94 783.52 473.85 779.17 486.44 772.13 497.65 762.9 506.14 753.43 513.09 742.09 516.24 729.4 514.58 716.72 510.7 703.97 502.73 691.72 492.13 679.4 480.91 667.45 468.21 656.4 455.17 645.26 442.48 635.07 429.62 626.57 417.11 618.33 404.86 612.16 392.61 608.92 380.81 606.61 369.01 607.76 358.7 611.81 350.28 616.78 341.96 624.35 335.73 633.72 331.92 643.61 328.21 654.91 326.76 666.79 327.56 678.85 327.74 691.25 329.41 703.17 332.38" stroke-dasharray="8 7" transform="rotate(72.72, 711, 400)" opacity="0.66"></path><path d="M698.49 343.77C708.81 345 717.74 347.11 725.1 349.93 732.51 351.72 738.53 354.71 743.15 358.97 748.2 362.8 752.35 368.31 755.63 375.51 759.93 382.59 763.79 391.52 766.9 402.18 771.08 412.85 773.77 424.32 774.76 435.96 775.95 447.62 774.88 459.33 771.59 470.25 768.06 480.81 762.24 490.02 754.49 496.8 746.57 502.36 736.91 504.75 725.9 503.19 714.89 499.96 703.65 493.31 692.74 484.37 681.81 474.85 671.14 463.86 661.28 452.39 651.42 441.06 642.42 429.46 634.94 418.16 627.74 407.03 622.34 396.02 619.45 385.62 617.31 375.21 618.1 366.34 621.36 359.24 625.34 352.17 631.57 346.96 639.39 343.81 647.63 340.62 657.17 339.32 667.28 339.89 677.55 339.89 688.18 341.2 698.49 343.77" stroke-dasharray="3 9" transform="rotate(76.76, 711, 400)" opacity="0.84"></path><path d="M694.5 355.15C703.25 356.32 710.97 358.37 717.49 361.13 724.07 363.09 729.61 366.11 734.06 370.16 738.86 373.83 742.92 378.87 746.2 385.25 750.2 391.53 753.69 399.32 756.36 408.56 759.81 417.79 761.91 427.63 762.55 437.51 763.4 447.36 762.41 457.12 759.63 466.04 756.74 474.61 751.97 481.93 745.54 487.16 739.01 491.48 730.93 493.23 721.59 491.8 712.24 489.17 702.58 483.75 693.13 476.41 683.69 468.56 674.45 459.35 665.9 449.58 657.4 439.82 649.67 429.71 643.27 419.83 637.12 410.04 632.49 400.4 629.98 391.4 628.04 382.41 628.52 374.85 631.07 368.88 634.14 362.91 639.11 358.52 645.45 355.86 652.12 353.08 659.94 351.85 668.33 352.17 676.84 352 685.74 352.99 694.5 355.15" stroke-dasharray="1 6" transform="rotate(80.80000000000001, 711, 400)" opacity="0.77"></path><path d="M691.4 366.54C698.63 367.6 705.17 369.53 710.82 372.12 719.02 375.62 731.96 386.59 736.96 394.44 740.54 399.92 743.6 406.59 745.83 414.35 748.59 422.1 750.16 430.25 750.5 438.31 751.03 446.31 750.1 454.1 747.75 461.08 745.37 467.77 741.49 473.36 736.26 477.23 730.98 480.46 724.39 481.67 716.69 480.42 709 478.33 700.97 474.05 693.07 468.22 685.2 461.99 677.48 454.56 670.33 446.57 663.27 438.51 656.86 430.07 651.56 421.76 646.47 413.49 642.64 405.34 640.52 397.78 638.92 387.05 645.12 372.08 651.99 367.94 657.19 365.5 663.37 364.31 670.1 364.39 676.92 364.07 684.16 364.77 691.4 366.54" stroke-dasharray="10 9" transform="rotate(84.84, 711, 400)" opacity="0.08"></path><path d="M689.37 377.93C700.89 379.3 710.76 383.98 717.94 390.92 725.8 397.02 732.07 406.65 735.3 419.16 739.84 431.66 740 444.78 736.08 455.3 732.18 465 723.66 470.6 711.49 469.03 699.32 465.38 686.08 455.49 674.68 443.18 663.57 430.55 654.72 416.53 651.05 404.3 648.43 392.06 651.79 383.74 659.05 379.88 666.91 375.52 677.84 374.73 689.37 377.93" stroke-dasharray="3 10" transform="rotate(88.88, 711, 400)" opacity="0.81"></path><path d="M688.52 389.32C697.14 390.55 704.93 394.54 710.88 400.28 717.21 405.52 722.27 413.24 724.77 422.66 727.98 432.08 727.82 441.47 724.69 448.66 721.64 455.35 715.27 459 706.26 457.64 697.25 455.12 687.45 448.15 679.04 439.29 670.84 430.16 664.32 419.78 661.58 410.53 660.53 398.03 675.98 387.49 688.52 389.32" stroke-dasharray="8 3" transform="rotate(92.92, 711, 400)" opacity="0.46"></path><path d="M688.89 400.7C700.4 402.13 711.16 412.01 714.24 424.62 718.56 437.22 713.16 447.77 701.29 446.25 689.41 442.71 676 428.48 672.11 416.04 669.34 403.59 677.38 397.39 688.89 400.7" stroke-dasharray="1 9" transform="rotate(96.96, 711, 400)" opacity="0.53"></path></g></svg>