<svg xmlns="http://www.w3.org/2000/svg" version="1.1" xmlns:xlink="http://www.w3.org/1999/xlink" xmlns:svgjs="http://svgjs.dev/svgjs" viewBox="0 0 2400 800" opacity="1"><defs><linearGradient x1="50%" y1="0%" x2="50%" y2="100%" id="oooscillate-grad"><stop stop-color="#2a64cb" stop-opacity="1" offset="0%"></stop><stop stop-color="#1fbbec" stop-opacity="1" offset="100%"></stop></linearGradient></defs><g stroke-width="1" stroke="url(#oooscillate-grad)" fill="none" stroke-linecap="round"><path d="M 0 1862 Q 600 230 1200 400 Q 1800 570 2400 1862" opacity="0.05"></path><path d="M 0 1824 Q 600 230 1200 400 Q 1800 570 2400 1824" opacity="0.07"></path><path d="M 0 1786 Q 600 230 1200 400 Q 1800 570 2400 1786" opacity="0.09"></path><path d="M 0 1748 Q 600 230 1200 400 Q 1800 570 2400 1748" opacity="0.11"></path><path d="M 0 1710 Q 600 230 1200 400 Q 1800 570 2400 1710" opacity="0.13"></path><path d="M 0 1672 Q 600 230 1200 400 Q 1800 570 2400 1672" opacity="0.15"></path><path d="M 0 1634 Q 600 230 1200 400 Q 1800 570 2400 1634" opacity="0.17"></path><path d="M 0 1596 Q 600 230 1200 400 Q 1800 570 2400 1596" opacity="0.19"></path><path d="M 0 1558 Q 600 230 1200 400 Q 1800 570 2400 1558" opacity="0.21"></path><path d="M 0 1520 Q 600 230 1200 400 Q 1800 570 2400 1520" opacity="0.23"></path><path d="M 0 1482 Q 600 230 1200 400 Q 1800 570 2400 1482" opacity="0.25"></path><path d="M 0 1444 Q 600 230 1200 400 Q 1800 570 2400 1444" opacity="0.27"></path><path d="M 0 1406 Q 600 230 1200 400 Q 1800 570 2400 1406" opacity="0.29"></path><path d="M 0 1368 Q 600 230 1200 400 Q 1800 570 2400 1368" opacity="0.31"></path><path d="M 0 1330 Q 600 230 1200 400 Q 1800 570 2400 1330" opacity="0.33"></path><path d="M 0 1292 Q 600 230 1200 400 Q 1800 570 2400 1292" opacity="0.35"></path><path d="M 0 1254 Q 600 230 1200 400 Q 1800 570 2400 1254" opacity="0.37"></path><path d="M 0 1216 Q 600 230 1200 400 Q 1800 570 2400 1216" opacity="0.39"></path><path d="M 0 1178 Q 600 230 1200 400 Q 1800 570 2400 1178" opacity="0.41"></path><path d="M 0 1140 Q 600 230 1200 400 Q 1800 570 2400 1140" opacity="0.43"></path><path d="M 0 1102 Q 600 230 1200 400 Q 1800 570 2400 1102" opacity="0.45"></path><path d="M 0 1064 Q 600 230 1200 400 Q 1800 570 2400 1064" opacity="0.47"></path><path d="M 0 1026 Q 600 230 1200 400 Q 1800 570 2400 1026" opacity="0.49"></path><path d="M 0 988 Q 600 230 1200 400 Q 1800 570 2400 988" opacity="0.51"></path><path d="M 0 950 Q 600 230 1200 400 Q 1800 570 2400 950" opacity="0.53"></path><path d="M 0 912 Q 600 230 1200 400 Q 1800 570 2400 912" opacity="0.54"></path><path d="M 0 874 Q 600 230 1200 400 Q 1800 570 2400 874" opacity="0.56"></path><path d="M 0 836 Q 600 230 1200 400 Q 1800 570 2400 836" opacity="0.58"></path><path d="M 0 798 Q 600 230 1200 400 Q 1800 570 2400 798" opacity="0.60"></path><path d="M 0 760 Q 600 230 1200 400 Q 1800 570 2400 760" opacity="0.62"></path><path d="M 0 722 Q 600 230 1200 400 Q 1800 570 2400 722" opacity="0.64"></path><path d="M 0 684 Q 600 230 1200 400 Q 1800 570 2400 684" opacity="0.66"></path><path d="M 0 646 Q 600 230 1200 400 Q 1800 570 2400 646" opacity="0.68"></path><path d="M 0 608 Q 600 230 1200 400 Q 1800 570 2400 608" opacity="0.70"></path><path d="M 0 570 Q 600 230 1200 400 Q 1800 570 2400 570" opacity="0.72"></path><path d="M 0 532 Q 600 230 1200 400 Q 1800 570 2400 532" opacity="0.74"></path><path d="M 0 494 Q 600 230 1200 400 Q 1800 570 2400 494" opacity="0.76"></path><path d="M 0 456 Q 600 230 1200 400 Q 1800 570 2400 456" opacity="0.78"></path><path d="M 0 418 Q 600 230 1200 400 Q 1800 570 2400 418" opacity="0.80"></path><path d="M 0 380 Q 600 230 1200 400 Q 1800 570 2400 380" opacity="0.82"></path><path d="M 0 342 Q 600 230 1200 400 Q 1800 570 2400 342" opacity="0.84"></path><path d="M 0 304 Q 600 230 1200 400 Q 1800 570 2400 304" opacity="0.86"></path><path d="M 0 266 Q 600 230 1200 400 Q 1800 570 2400 266" opacity="0.88"></path><path d="M 0 228 Q 600 230 1200 400 Q 1800 570 2400 228" opacity="0.90"></path><path d="M 0 190 Q 600 230 1200 400 Q 1800 570 2400 190" opacity="0.92"></path><path d="M 0 152 Q 600 230 1200 400 Q 1800 570 2400 152" opacity="0.94"></path><path d="M 0 114 Q 600 230 1200 400 Q 1800 570 2400 114" opacity="0.96"></path><path d="M 0 76 Q 600 230 1200 400 Q 1800 570 2400 76" opacity="0.98"></path></g></svg>